<svg xmlns="http://www.w3.org/2000/svg" width="15" height="15" viewBox="0 0 15 15" fill="none">
  <path d="M9.6875 7.5L13.9844 3.20312C14.6094 2.57812 14.6094 1.64062 13.9844 1.01562C13.75 0.703125 13.3594 0.46875 12.9688 0.46875C12.5781 0.46875 12.1875 0.625 11.875 0.9375L7.5 5.3125L3.20312 1.01562C2.57812 0.390625 1.5625 0.390625 1.01562 1.01562C0.703125 1.25 0.46875 1.64063 0.46875 2.10938C0.46875 2.57813 0.625 2.89062 0.9375 3.20312L5.23438 7.5L0.9375 11.7969C0.703125 12.1094 0.46875 12.5 0.46875 12.9688C0.46875 13.3594 0.625 13.75 0.9375 14.0625C1.25 14.375 1.64062 14.5312 2.03125 14.5312C2.42188 14.5312 2.8125 14.375 3.125 14.0625L7.42187 9.76562L11.7188 14.0625C12.3438 14.6875 13.3594 14.6875 13.9063 14.0625C14.5313 13.4375 14.5313 12.4219 13.9063 11.875L9.6875 7.5Z" fill="white"/>
</svg>